<svg xmlns="http://www.w3.org/2000/svg" viewBox="0 0 32 32">
  <path fill="#ffb000" d="M5 12 L9 3 L13 12 L19 12 L23 3 L27 12 L27 19 A11 11 0 0 1 5 19 Z"/>
  <path fill="#ff8a00" d="M9 3 L11 8 L13 12 L9.5 11 Z"/>
  <path fill="#ff8a00" d="M23 3 L21 8 L19 12 L22.5 11 Z"/>
  <circle cx="12" cy="17.5" r="1.6" fill="#1a1a1a"/>
  <circle cx="20" cy="17.5" r="1.6" fill="#1a1a1a"/>
  <circle cx="11.5" cy="17" r="0.5" fill="#fff"/>
  <circle cx="19.5" cy="17" r="0.5" fill="#fff"/>
  <path fill="#ff6b6b" d="M14.6 21 L17.4 21 L16 22.6 Z"/>
  <path fill="none" stroke="#1a1a1a" stroke-width="0.6" stroke-linecap="round" d="M16 22.6 Q14.5 24.5 13 23.8 M16 22.6 Q17.5 24.5 19 23.8"/>
  <path fill="none" stroke="#1a1a1a" stroke-width="0.5" stroke-linecap="round" opacity="0.7" d="M3 21 L10 22 M3 23.5 L10 23 M22 22 L29 21 M22 23 L29 23.5"/>
</svg>
